<svg width="20" height="20" viewBox="0 0 20 20" fill="none" xmlns="http://www.w3.org/2000/svg">
<path fill-rule="evenodd" clip-rule="evenodd" d="M13.7013 15.4564C14.0571 15.0761 14.2852 14.594 14.3537 14.0777L18.2413 15.8052C18.4315 15.89 18.64 15.9259 18.8477 15.9096C19.0554 15.8933 19.2557 15.8254 19.4304 15.712C19.6052 15.5986 19.7488 15.4433 19.8483 15.2603C19.9478 15.0773 19.9999 14.8723 20 14.6639V5.33644C19.9998 5.12829 19.9477 4.92348 19.8483 4.74059C19.7488 4.5577 19.6053 4.40254 19.4308 4.28918C19.2562 4.17581 19.0561 4.10784 18.8486 4.09143C18.641 4.07502 18.4327 4.11068 18.2425 4.19519L14.3537 5.92269C14.2743 5.32155 13.9791 4.76977 13.5231 4.3701C13.0671 3.97044 12.4814 3.75012 11.875 3.75019H5.34L13.7013 15.4564ZM1.05875 4.20644C0.731452 4.43737 0.464434 4.74356 0.280182 5.09923C0.0959302 5.4549 -0.000161141 5.84963 2.02845e-07 6.25019V13.7502C2.02845e-07 14.4132 0.263392 15.0491 0.732233 15.518C1.20107 15.9868 1.83696 16.2502 2.5 16.2502H9.66L1.05875 4.20644ZM13.2413 19.1127L0.74125 1.6127L1.75875 0.887695L14.2587 18.3877L13.2413 19.1127Z" fill="white"/>
</svg>
