<svg width="35" height="35" viewBox="0 0 35 35" fill="none" xmlns="http://www.w3.org/2000/svg">
<path d="M25.6964 13.2353H22.8571V4.70588C22.8571 3.76765 22.0536 3 21.0714 3H13.9286C12.9464 3 12.1429 3.76765 12.1429 4.70588V13.2353H9.30357C7.71429 13.2353 6.91071 15.0776 8.03571 16.1524L16.2321 23.9824C16.9286 24.6476 18.0536 24.6476 18.75 23.9824L26.9464 16.1524C28.0714 15.0776 27.2857 13.2353 25.6964 13.2353ZM5 30.2941C5 31.2324 5.80357 32 6.78571 32H28.2143C29.1964 32 30 31.2324 30 30.2941C30 29.3559 29.1964 28.5882 28.2143 28.5882H6.78571C5.80357 28.5882 5 29.3559 5 30.2941Z" fill="#1AEBB8"/>
</svg>
