<svg width="24" height="24" viewBox="0 0 24 24" fill="none" xmlns="http://www.w3.org/2000/svg">
<g clip-path="url(#clip0_547_476)">
<path d="M13.647 20.33C12.4223 20.33 11.2893 20.143 10.248 19.769C9.20667 19.395 8.29367 18.8597 7.509 18.163C6.73167 17.459 6.12667 16.6157 5.694 15.633C5.26133 14.6503 5.045 13.5467 5.045 12.322C5.045 11.1047 5.254 10.0047 5.672 9.022C6.09 8.032 6.673 7.185 7.421 6.481C8.17633 5.76967 9.06 5.22333 10.072 4.842C11.0913 4.46067 12.2023 4.27 13.405 4.27C13.9623 4.27 14.527 4.314 15.099 4.402C15.671 4.49 16.232 4.63667 16.782 4.842C17.3393 5.04 17.8673 5.31133 18.366 5.656L17.288 7.592C16.7307 7.24 16.1257 6.976 15.473 6.8C14.8277 6.624 14.1603 6.536 13.471 6.536C12.5763 6.536 11.766 6.67167 11.04 6.943C10.314 7.207 9.69433 7.592 9.181 8.098C8.66767 8.59667 8.27167 9.20167 7.993 9.913C7.72167 10.6243 7.586 11.4237 7.586 12.311C7.586 13.5577 7.85 14.6173 8.378 15.49C8.906 16.3627 9.632 17.0263 10.556 17.481C11.4873 17.9283 12.558 18.152 13.768 18.152C14.362 18.152 14.8973 18.097 15.374 17.987C15.8507 17.8697 16.2357 17.7377 16.529 17.591V13.873H13.031V11.827H18.74V19.021C18.3367 19.2923 17.8307 19.527 17.222 19.725C16.6207 19.923 15.9973 20.0733 15.352 20.176C14.714 20.2787 14.1457 20.33 13.647 20.33Z" fill="white"/>
</g>
<defs>
<clipPath id="clip0_547_476">
<rect width="24" height="24" fill="white"/>
</clipPath>
</defs>
</svg>
