<svg width="197" height="46" viewBox="0 0 197 46" fill="none" xmlns="http://www.w3.org/2000/svg">
<g filter="url(#filter0_f_179_713)">
<path d="M41.1885 16.9104V40.3731H35V5H42.3545L53.4759 29.403L64.7318 5H72.0414V40.3731H65.6735V16.9104L54.6867 40.3731H52.0857L41.1885 16.9104Z" fill="url(#paint0_linear_179_713)"/>
<path d="M87.5496 41C82.7065 41 79.0591 39.806 76.6076 37.4179C74.1561 35.0299 72.9304 31.791 72.9304 27.7015C72.9304 25.0448 73.4386 22.7015 74.4551 20.6716C75.5015 18.6119 76.9664 17.0149 78.8498 15.8806C80.7632 14.7164 82.9456 14.1343 85.3971 14.1343C87.8785 14.1343 90.046 14.7015 91.8995 15.8358C93.783 16.9701 95.233 18.5672 96.2494 20.6269C97.2659 22.6567 97.7742 25.0149 97.7742 27.7015V30.209H79.5674C80.2251 33.8507 83.0802 35.6716 88.1326 35.6716C90.3748 35.6716 103.014 35.9702 105.256 35.2836L113.281 41C110.5 41 90.33 41 87.5496 41ZM91.2717 24.9701C91.0924 23.3582 90.4645 22.0746 89.3883 21.1194C88.312 20.1343 86.9816 19.6418 85.3971 19.6418C83.8126 19.6418 82.4822 20.1343 81.406 21.1194C80.3297 22.1045 79.7168 23.3881 79.5674 24.9701H91.2717Z" fill="url(#paint1_linear_179_713)"/>
<path d="M113.281 41C108.438 41 104.79 39.806 102.339 37.4179C99.8873 35.0299 98.6616 31.791 98.6616 27.7015C98.6616 25.0448 99.1698 22.7015 100.186 20.6716C101.233 18.6119 102.698 17.0149 104.581 15.8806C106.494 14.7164 108.677 14.1343 111.128 14.1343C113.61 14.1343 115.777 14.7015 117.631 15.8358C119.514 16.9701 120.964 18.5672 121.981 20.6269C122.997 22.6567 123.505 25.0149 123.505 27.7015V30.209H105.299C105.956 33.8507 108.811 35.6716 113.864 35.6716C116.106 35.6716 134.405 35.9702 136.647 35.2836L139.359 41C136.638 41 116.061 41 113.281 41ZM117.003 24.9701C116.824 23.3582 116.196 22.0746 115.119 21.1194C114.043 20.1343 112.713 19.6418 111.128 19.6418C109.544 19.6418 108.213 20.1343 107.137 21.1194C106.061 22.1045 105.448 23.3881 105.299 24.9701H117.003Z" fill="url(#paint2_linear_179_713)"/>
<path d="M124.348 41V5H138.429C142.345 5 145.29 5.8209 147.263 7.46269C149.266 9.10448 150.268 11.3433 150.268 14.1791C150.268 15.9104 149.849 17.4328 149.012 18.7463C148.175 20.0299 146.979 21 145.425 21.6567C147.398 22.2239 148.938 23.2687 150.044 24.791C151.15 26.2836 151.703 28.1045 151.703 30.2537C151.703 32.194 151.24 33.9403 150.313 35.4925C149.386 37.0149 147.996 38.209 146.142 39.0746C144.289 39.9403 142.079 41 139.359 41H124.348ZM130.895 10.7313V19.2388H138.025C139.969 19.2388 141.434 18.8657 142.42 18.1194C143.407 17.3433 143.9 16.2836 143.9 14.9403C143.9 13.6269 143.422 12.597 142.465 11.8507C141.508 11.1045 140.073 10.7313 138.16 10.7313H130.895ZM130.895 24.791V34.6418H138.474C140.656 34.6418 142.316 34.2239 143.452 33.3881C144.588 32.5224 145.156 31.2985 145.156 29.7164C145.156 28.1343 144.573 26.9254 143.407 26.0896C142.241 25.2239 140.552 24.791 138.339 24.791H130.895Z" fill="url(#paint3_linear_179_713)"/>
<path d="M165.005 40.9552C162.584 40.9552 160.416 40.3881 158.503 39.2537C156.619 38.1194 155.14 36.5522 154.063 34.5522C152.987 32.5224 152.449 30.2388 152.449 27.7015C152.449 25.1642 152.987 22.8955 154.063 20.8955C155.14 18.8657 156.619 17.2836 158.503 16.1493C160.416 15.0149 162.584 14.4478 165.005 14.4478C167.427 14.4478 169.579 15.0149 171.463 16.1493C173.376 17.2836 174.871 18.8657 175.947 20.8955C177.024 22.8955 177.562 25.1642 177.562 27.7015C177.562 30.2388 177.024 32.5224 175.947 34.5522C174.871 36.5522 173.376 38.1194 171.463 39.2537C169.579 40.3881 167.427 40.9552 165.005 40.9552ZM165.005 35.3582C166.829 35.3582 168.324 34.6418 169.49 33.209C170.686 31.7761 171.283 29.9403 171.283 27.7015C171.283 25.4328 170.701 23.597 169.535 22.194C168.369 20.7612 166.859 20.0448 165.005 20.0448C163.152 20.0448 161.642 20.7612 160.476 22.194C159.31 23.597 158.727 25.4328 158.727 27.7015C158.727 29.9403 159.31 31.7761 160.476 33.209C161.672 34.6418 163.182 35.3582 165.005 35.3582Z" fill="url(#paint4_linear_179_713)"/>
<path d="M192 41C188.532 41 185.811 40.4925 183.838 39.4776C181.895 38.4627 180.52 36.9552 179.713 34.9552C178.905 32.9254 178.502 30.2537 178.502 26.9403V8.89552H184.69V15.6119H192V21.2537H184.69V27.5224C184.69 29.3433 184.9 30.8358 185.318 32C185.737 33.1343 186.469 34 187.516 34.597C188.592 35.194 190.087 35.4776 192 35.4478V41Z" fill="url(#paint5_linear_179_713)"/>
</g>
<g filter="url(#filter1_f_179_713)">
<path d="M32.2632 23.5455C32.2632 31.5787 26.732 38.0909 19 38.0909C11.268 38.0909 5.73684 31.5455 5.73684 23.5455C7.21053 16.2727 11.268 9 19 9C26.732 9 30.7895 16.2727 32.2632 23.5455Z" fill="url(#paint6_linear_179_713)"/>
<path d="M5.73684 23.5455H32.2632L32.4474 24.8182L32.6316 26.0909L33 31.5455V33.7273C33 37.7439 29.701 41 25.6316 41H12.3684C8.29895 41 5 37.7439 5 33.7273V31.5455L5.43119 26.0909L5.73684 23.5455Z" fill="url(#paint7_linear_179_713)"/>
</g>
<g filter="url(#filter2_f_179_713)">
<path d="M26.0001 22C26.0001 22.5523 25.5524 23 25.0001 23C24.4478 23 24.0001 22.5523 24.0001 22C24.0001 21.4477 24.4478 21 25.0001 21C25.5524 21 26.0001 21.4477 26.0001 22Z" fill="black"/>
<path d="M21 22C21 22.5523 20.5523 23 20 23C19.4477 23 19 22.5523 19 22C19 21.4477 19.4477 21 20 21C20.5523 21 21 21.4477 21 22Z" fill="black"/>
</g>
<path d="M41.1885 16.9104V40.3731H35V5H42.3545L53.4759 29.403L64.7318 5H72.0414V40.3731H65.6735V16.9104L54.6867 40.3731H52.0857L41.1885 16.9104Z" fill="white"/>
<path d="M87.5496 41C82.7065 41 79.0591 39.806 76.6076 37.4179C74.1561 35.0299 72.9304 31.791 72.9304 27.7015C72.9304 25.0448 73.4386 22.7015 74.4551 20.6716C75.5015 18.6119 76.9664 17.0149 78.8498 15.8806C80.7632 14.7164 82.9456 14.1343 85.3971 14.1343C87.8785 14.1343 90.046 14.7015 91.8995 15.8358C93.783 16.9701 95.233 18.5672 96.2494 20.6269C97.2659 22.6567 97.7742 25.0149 97.7742 27.7015V30.209H79.5674C80.2251 33.8507 83.0802 35.6716 88.1326 35.6716C90.3748 35.6716 103.014 35.9702 105.256 35.2836L113.281 41C110.5 41 90.33 41 87.5496 41ZM91.2717 24.9701C91.0924 23.3582 90.4645 22.0746 89.3883 21.1194C88.312 20.1343 86.9816 19.6418 85.3971 19.6418C83.8126 19.6418 82.4822 20.1343 81.406 21.1194C80.3297 22.1045 79.7168 23.3881 79.5674 24.9701H91.2717Z" fill="white"/>
<path d="M113.281 41C108.438 41 104.79 39.806 102.339 37.4179C99.8873 35.0299 98.6616 31.791 98.6616 27.7015C98.6616 25.0448 99.1698 22.7015 100.186 20.6716C101.233 18.6119 102.698 17.0149 104.581 15.8806C106.494 14.7164 108.677 14.1343 111.128 14.1343C113.61 14.1343 115.777 14.7015 117.631 15.8358C119.514 16.9701 120.964 18.5672 121.981 20.6269C122.997 22.6567 123.505 25.0149 123.505 27.7015V30.209H105.299C105.956 33.8507 108.811 35.6716 113.864 35.6716C116.106 35.6716 134.405 35.9702 136.647 35.2836L139.359 41C136.638 41 116.061 41 113.281 41ZM117.003 24.9701C116.824 23.3582 116.196 22.0746 115.119 21.1194C114.043 20.1343 112.713 19.6418 111.128 19.6418C109.544 19.6418 108.213 20.1343 107.137 21.1194C106.061 22.1045 105.448 23.3881 105.299 24.9701H117.003Z" fill="white"/>
<path d="M124.348 41V5H138.429C142.345 5 145.29 5.8209 147.263 7.46269C149.266 9.10448 150.268 11.3433 150.268 14.1791C150.268 15.9104 149.849 17.4328 149.012 18.7463C148.175 20.0299 146.979 21 145.425 21.6567C147.398 22.2239 148.938 23.2687 150.044 24.791C151.15 26.2836 151.703 28.1045 151.703 30.2537C151.703 32.194 151.24 33.9403 150.313 35.4925C149.386 37.0149 147.996 38.209 146.142 39.0746C144.289 39.9403 142.079 41 139.359 41H124.348ZM130.895 10.7313V19.2388H138.025C139.969 19.2388 141.434 18.8657 142.42 18.1194C143.407 17.3433 143.9 16.2836 143.9 14.9403C143.9 13.6269 143.422 12.597 142.465 11.8507C141.508 11.1045 140.073 10.7313 138.16 10.7313H130.895ZM130.895 24.791V34.6418H138.474C140.656 34.6418 142.316 34.2239 143.452 33.3881C144.588 32.5224 145.156 31.2985 145.156 29.7164C145.156 28.1343 144.573 26.9254 143.407 26.0896C142.241 25.2239 140.552 24.791 138.339 24.791H130.895Z" fill="white"/>
<path d="M165.005 40.9552C162.584 40.9552 160.416 40.3881 158.503 39.2537C156.619 38.1194 155.14 36.5522 154.063 34.5522C152.987 32.5224 152.449 30.2388 152.449 27.7015C152.449 25.1642 152.987 22.8955 154.063 20.8955C155.14 18.8657 156.619 17.2836 158.503 16.1493C160.416 15.0149 162.584 14.4478 165.005 14.4478C167.427 14.4478 169.579 15.0149 171.463 16.1493C173.376 17.2836 174.871 18.8657 175.947 20.8955C177.024 22.8955 177.562 25.1642 177.562 27.7015C177.562 30.2388 177.024 32.5224 175.947 34.5522C174.871 36.5522 173.376 38.1194 171.463 39.2537C169.579 40.3881 167.427 40.9552 165.005 40.9552ZM165.005 35.3582C166.829 35.3582 168.324 34.6418 169.49 33.209C170.686 31.7761 171.283 29.9403 171.283 27.7015C171.283 25.4328 170.701 23.597 169.535 22.194C168.369 20.7612 166.859 20.0448 165.005 20.0448C163.152 20.0448 161.642 20.7612 160.476 22.194C159.31 23.597 158.727 25.4328 158.727 27.7015C158.727 29.9403 159.31 31.7761 160.476 33.209C161.672 34.6418 163.182 35.3582 165.005 35.3582Z" fill="white"/>
<path d="M192 41C188.532 41 185.811 40.4925 183.838 39.4776C181.895 38.4627 180.52 36.9552 179.713 34.9552C178.905 32.9254 178.502 30.2537 178.502 26.9403V8.89552H184.69V15.6119H192V21.2537H184.69V27.5224C184.69 29.3433 184.9 30.8358 185.318 32C185.737 33.1343 186.469 34 187.516 34.597C188.592 35.194 190.087 35.4776 192 35.4478V41Z" fill="white"/>
<path d="M32.2632 23.5455C32.2632 31.5787 26.732 38.0909 19 38.0909C11.268 38.0909 5.73684 31.5455 5.73684 23.5455C7.21053 16.2727 11.268 9 19 9C26.732 9 30.7895 16.2727 32.2632 23.5455Z" fill="white"/>
<path d="M5.73684 23.5455H32.2632L32.4474 24.8182L32.6316 26.0909L33 31.5455V33.7273C33 37.7439 29.701 41 25.6316 41H12.3684C8.29895 41 5 37.7439 5 33.7273V31.5455L5.43119 26.0909L5.73684 23.5455Z" fill="white"/>
<path d="M26.0001 22C26.0001 22.5523 25.5524 23 25.0001 23C24.4478 23 24.0001 22.5523 24.0001 22C24.0001 21.4477 24.4478 21 25.0001 21C25.5524 21 26.0001 21.4477 26.0001 22Z" fill="black"/>
<path d="M21 22C21 22.5523 20.5523 23 20 23C19.4477 23 19 22.5523 19 22C19 21.4477 19.4477 21 20 21C20.5523 21 21 21.4477 21 22Z" fill="black"/>
<defs>
<filter id="filter0_f_179_713" x="30" y="0" width="167" height="46" filterUnits="userSpaceOnUse" color-interpolation-filters="sRGB">
<feFlood flood-opacity="0" result="BackgroundImageFix"/>
<feBlend mode="normal" in="SourceGraphic" in2="BackgroundImageFix" result="shape"/>
<feGaussianBlur stdDeviation="2.5" result="effect1_foregroundBlur_179_713"/>
</filter>
<filter id="filter1_f_179_713" x="0" y="4" width="38" height="42" filterUnits="userSpaceOnUse" color-interpolation-filters="sRGB">
<feFlood flood-opacity="0" result="BackgroundImageFix"/>
<feBlend mode="normal" in="SourceGraphic" in2="BackgroundImageFix" result="shape"/>
<feGaussianBlur stdDeviation="2.5" result="effect1_foregroundBlur_179_713"/>
</filter>
<filter id="filter2_f_179_713" x="14" y="16" width="17" height="12" filterUnits="userSpaceOnUse" color-interpolation-filters="sRGB">
<feFlood flood-opacity="0" result="BackgroundImageFix"/>
<feBlend mode="normal" in="SourceGraphic" in2="BackgroundImageFix" result="shape"/>
<feGaussianBlur stdDeviation="2.5" result="effect1_foregroundBlur_179_713"/>
</filter>
<linearGradient id="paint0_linear_179_713" x1="35" y1="41" x2="51.8098" y2="-40.5974" gradientUnits="userSpaceOnUse">
<stop stop-color="#9358F7"/>
<stop offset="0.0666667" stop-color="#9259F7"/>
<stop offset="0.133333" stop-color="#8E5DF6"/>
<stop offset="0.2" stop-color="#8862F5"/>
<stop offset="0.266667" stop-color="#806BF4"/>
<stop offset="0.333333" stop-color="#7575F2"/>
<stop offset="0.4" stop-color="#6882F0"/>
<stop offset="0.466667" stop-color="#5990EE"/>
<stop offset="0.533333" stop-color="#4A9FEB"/>
<stop offset="0.6" stop-color="#3BADE9"/>
<stop offset="0.666667" stop-color="#2EBAE7"/>
<stop offset="0.733333" stop-color="#23C4E5"/>
<stop offset="0.8" stop-color="#1BCDE4"/>
<stop offset="0.866667" stop-color="#15D2E3"/>
<stop offset="0.933333" stop-color="#11D6E2"/>
<stop offset="1" stop-color="#10D7E2"/>
</linearGradient>
<linearGradient id="paint1_linear_179_713" x1="35" y1="41" x2="51.8098" y2="-40.5974" gradientUnits="userSpaceOnUse">
<stop stop-color="#9358F7"/>
<stop offset="0.0666667" stop-color="#9259F7"/>
<stop offset="0.133333" stop-color="#8E5DF6"/>
<stop offset="0.2" stop-color="#8862F5"/>
<stop offset="0.266667" stop-color="#806BF4"/>
<stop offset="0.333333" stop-color="#7575F2"/>
<stop offset="0.4" stop-color="#6882F0"/>
<stop offset="0.466667" stop-color="#5990EE"/>
<stop offset="0.533333" stop-color="#4A9FEB"/>
<stop offset="0.6" stop-color="#3BADE9"/>
<stop offset="0.666667" stop-color="#2EBAE7"/>
<stop offset="0.733333" stop-color="#23C4E5"/>
<stop offset="0.8" stop-color="#1BCDE4"/>
<stop offset="0.866667" stop-color="#15D2E3"/>
<stop offset="0.933333" stop-color="#11D6E2"/>
<stop offset="1" stop-color="#10D7E2"/>
</linearGradient>
<linearGradient id="paint2_linear_179_713" x1="35" y1="41" x2="51.8098" y2="-40.5974" gradientUnits="userSpaceOnUse">
<stop stop-color="#9358F7"/>
<stop offset="0.0666667" stop-color="#9259F7"/>
<stop offset="0.133333" stop-color="#8E5DF6"/>
<stop offset="0.2" stop-color="#8862F5"/>
<stop offset="0.266667" stop-color="#806BF4"/>
<stop offset="0.333333" stop-color="#7575F2"/>
<stop offset="0.4" stop-color="#6882F0"/>
<stop offset="0.466667" stop-color="#5990EE"/>
<stop offset="0.533333" stop-color="#4A9FEB"/>
<stop offset="0.6" stop-color="#3BADE9"/>
<stop offset="0.666667" stop-color="#2EBAE7"/>
<stop offset="0.733333" stop-color="#23C4E5"/>
<stop offset="0.8" stop-color="#1BCDE4"/>
<stop offset="0.866667" stop-color="#15D2E3"/>
<stop offset="0.933333" stop-color="#11D6E2"/>
<stop offset="1" stop-color="#10D7E2"/>
</linearGradient>
<linearGradient id="paint3_linear_179_713" x1="35" y1="41" x2="51.8098" y2="-40.5974" gradientUnits="userSpaceOnUse">
<stop stop-color="#9358F7"/>
<stop offset="0.0666667" stop-color="#9259F7"/>
<stop offset="0.133333" stop-color="#8E5DF6"/>
<stop offset="0.2" stop-color="#8862F5"/>
<stop offset="0.266667" stop-color="#806BF4"/>
<stop offset="0.333333" stop-color="#7575F2"/>
<stop offset="0.4" stop-color="#6882F0"/>
<stop offset="0.466667" stop-color="#5990EE"/>
<stop offset="0.533333" stop-color="#4A9FEB"/>
<stop offset="0.6" stop-color="#3BADE9"/>
<stop offset="0.666667" stop-color="#2EBAE7"/>
<stop offset="0.733333" stop-color="#23C4E5"/>
<stop offset="0.8" stop-color="#1BCDE4"/>
<stop offset="0.866667" stop-color="#15D2E3"/>
<stop offset="0.933333" stop-color="#11D6E2"/>
<stop offset="1" stop-color="#10D7E2"/>
</linearGradient>
<linearGradient id="paint4_linear_179_713" x1="35" y1="41" x2="51.8098" y2="-40.5974" gradientUnits="userSpaceOnUse">
<stop stop-color="#9358F7"/>
<stop offset="0.0666667" stop-color="#9259F7"/>
<stop offset="0.133333" stop-color="#8E5DF6"/>
<stop offset="0.2" stop-color="#8862F5"/>
<stop offset="0.266667" stop-color="#806BF4"/>
<stop offset="0.333333" stop-color="#7575F2"/>
<stop offset="0.4" stop-color="#6882F0"/>
<stop offset="0.466667" stop-color="#5990EE"/>
<stop offset="0.533333" stop-color="#4A9FEB"/>
<stop offset="0.6" stop-color="#3BADE9"/>
<stop offset="0.666667" stop-color="#2EBAE7"/>
<stop offset="0.733333" stop-color="#23C4E5"/>
<stop offset="0.8" stop-color="#1BCDE4"/>
<stop offset="0.866667" stop-color="#15D2E3"/>
<stop offset="0.933333" stop-color="#11D6E2"/>
<stop offset="1" stop-color="#10D7E2"/>
</linearGradient>
<linearGradient id="paint5_linear_179_713" x1="35" y1="41" x2="51.8098" y2="-40.5974" gradientUnits="userSpaceOnUse">
<stop stop-color="#9358F7"/>
<stop offset="0.0666667" stop-color="#9259F7"/>
<stop offset="0.133333" stop-color="#8E5DF6"/>
<stop offset="0.2" stop-color="#8862F5"/>
<stop offset="0.266667" stop-color="#806BF4"/>
<stop offset="0.333333" stop-color="#7575F2"/>
<stop offset="0.4" stop-color="#6882F0"/>
<stop offset="0.466667" stop-color="#5990EE"/>
<stop offset="0.533333" stop-color="#4A9FEB"/>
<stop offset="0.6" stop-color="#3BADE9"/>
<stop offset="0.666667" stop-color="#2EBAE7"/>
<stop offset="0.733333" stop-color="#23C4E5"/>
<stop offset="0.8" stop-color="#1BCDE4"/>
<stop offset="0.866667" stop-color="#15D2E3"/>
<stop offset="0.933333" stop-color="#11D6E2"/>
<stop offset="1" stop-color="#10D7E2"/>
</linearGradient>
<linearGradient id="paint6_linear_179_713" x1="5" y1="41" x2="42.7914" y2="4.19408" gradientUnits="userSpaceOnUse">
<stop stop-color="#9358F7"/>
<stop offset="0.0666667" stop-color="#9259F7"/>
<stop offset="0.133333" stop-color="#8E5DF6"/>
<stop offset="0.2" stop-color="#8862F5"/>
<stop offset="0.266667" stop-color="#806BF4"/>
<stop offset="0.333333" stop-color="#7575F2"/>
<stop offset="0.4" stop-color="#6882F0"/>
<stop offset="0.466667" stop-color="#5990EE"/>
<stop offset="0.533333" stop-color="#4A9FEB"/>
<stop offset="0.6" stop-color="#3BADE9"/>
<stop offset="0.666667" stop-color="#2EBAE7"/>
<stop offset="0.733333" stop-color="#23C4E5"/>
<stop offset="0.8" stop-color="#1BCDE4"/>
<stop offset="0.866667" stop-color="#15D2E3"/>
<stop offset="0.933333" stop-color="#11D6E2"/>
<stop offset="1" stop-color="#10D7E2"/>
</linearGradient>
<linearGradient id="paint7_linear_179_713" x1="5" y1="41" x2="42.7914" y2="4.19408" gradientUnits="userSpaceOnUse">
<stop stop-color="#9358F7"/>
<stop offset="0.0666667" stop-color="#9259F7"/>
<stop offset="0.133333" stop-color="#8E5DF6"/>
<stop offset="0.2" stop-color="#8862F5"/>
<stop offset="0.266667" stop-color="#806BF4"/>
<stop offset="0.333333" stop-color="#7575F2"/>
<stop offset="0.4" stop-color="#6882F0"/>
<stop offset="0.466667" stop-color="#5990EE"/>
<stop offset="0.533333" stop-color="#4A9FEB"/>
<stop offset="0.6" stop-color="#3BADE9"/>
<stop offset="0.666667" stop-color="#2EBAE7"/>
<stop offset="0.733333" stop-color="#23C4E5"/>
<stop offset="0.8" stop-color="#1BCDE4"/>
<stop offset="0.866667" stop-color="#15D2E3"/>
<stop offset="0.933333" stop-color="#11D6E2"/>
<stop offset="1" stop-color="#10D7E2"/>
</linearGradient>
</defs>
</svg>
