<svg width="24" height="24" viewBox="0 0 24 24" fill="none" xmlns="http://www.w3.org/2000/svg">
<path d="M3.7078 2.29191C3.61482 2.19893 3.50444 2.12518 3.38297 2.07486C3.26149 2.02454 3.13129 1.99865 2.9998 1.99865C2.86831 1.99865 2.73811 2.02454 2.61663 2.07486C2.49515 2.12518 2.38477 2.19893 2.2918 2.29191C2.19882 2.38489 2.12507 2.49526 2.07475 2.61674C2.02443 2.73822 1.99854 2.86842 1.99854 2.99991C1.99854 3.1314 2.02443 3.2616 2.07475 3.38308C2.12507 3.50455 2.19882 3.61493 2.2918 3.70791L7.9998 9.41391V10.9999C7.99957 11.6416 8.15374 12.274 8.44929 12.8436C8.74485 13.4132 9.1731 13.9033 9.69792 14.2726C10.2227 14.6419 10.8287 14.8795 11.4646 14.9654C12.1006 15.0512 12.7478 14.9828 13.3518 14.7659L14.8618 16.2759C13.9477 16.772 12.9204 17.022 11.8805 17.0013C10.8407 16.9806 9.82411 16.69 8.93047 16.158C8.03682 15.626 7.29681 14.8708 6.78303 13.9665C6.26925 13.0622 5.99935 12.0399 5.9998 10.9999C5.9998 10.7344 5.89434 10.4798 5.70661 10.2921C5.51889 10.1044 5.26428 9.99891 4.9988 9.99891C4.73332 9.99891 4.47871 10.1044 4.29098 10.2921C4.10326 10.4798 3.9978 10.7344 3.9978 10.9999C3.99713 12.9489 4.70799 14.8311 5.99689 16.2931C7.28579 17.7551 9.06407 18.6963 10.9978 18.9399V20.9999C10.9978 21.2651 11.1032 21.5195 11.2907 21.707C11.4782 21.8946 11.7326 21.9999 11.9978 21.9999C12.263 21.9999 12.5174 21.8946 12.7049 21.707C12.8924 21.5195 12.9978 21.2651 12.9978 20.9999V18.9399C14.1805 18.7903 15.3148 18.3783 16.3178 17.7339L20.2898 21.7079C20.4776 21.8957 20.7322 22.0012 20.9978 22.0012C21.2633 22.0012 21.518 21.8957 21.7058 21.7079C21.8936 21.5201 21.9991 21.2655 21.9991 20.9999C21.9991 20.7344 21.8936 20.4797 21.7058 20.2919L3.7078 2.29191ZM19.0398 14.7999L17.5398 13.2999C17.843 12.571 17.9993 11.7894 17.9998 10.9999C17.9998 10.7347 18.1052 10.4803 18.2927 10.2928C18.4802 10.1053 18.7346 9.99991 18.9998 9.99991C19.265 9.99991 19.5194 10.1053 19.7069 10.2928C19.8944 10.4803 19.9998 10.7347 19.9998 10.9999C19.9998 12.3759 19.6518 13.6699 19.0398 14.7999ZM15.9398 11.6979L8.4318 4.18991C8.83835 3.38766 9.50341 2.74583 10.3196 2.36804C11.1358 1.99026 12.0555 1.89856 12.9302 2.10776C13.8049 2.31697 14.5836 2.81485 15.1406 3.52105C15.6975 4.22724 16.0002 5.10052 15.9998 5.99991V10.9999C15.9998 11.2372 15.9798 11.4699 15.9398 11.6979Z" fill="white"/>
</svg>
