<svg width="35" height="35" viewBox="0 0 35 35" fill="none" xmlns="http://www.w3.org/2000/svg">
<path d="M5.83301 10.2083H29.1663M14.583 16.0417V24.7917M20.4163 16.0417V24.7917M7.29134 10.2083L8.74967 27.7083C8.74967 28.4819 9.05697 29.2237 9.60395 29.7707C10.1509 30.3177 10.8928 30.625 11.6663 30.625H23.333C24.1066 30.625 24.8484 30.3177 25.3954 29.7707C25.9424 29.2237 26.2497 28.4819 26.2497 27.7083L27.708 10.2083M13.1247 10.2083V5.83333C13.1247 5.44656 13.2783 5.07563 13.5518 4.80214C13.8253 4.52865 14.1962 4.375 14.583 4.375H20.4163C20.8031 4.375 21.174 4.52865 21.4475 4.80214C21.721 5.07563 21.8747 5.44656 21.8747 5.83333V10.2083" stroke="#D2E2FF" stroke-width="3" stroke-linecap="round" stroke-linejoin="round"/>
</svg>
