<svg width="240" height="240" viewBox="0 0 240 240" fill="none" xmlns="http://www.w3.org/2000/svg">
<rect width="240" height="240" rx="120" fill="#171F2E"/>
<g filter="url(#filter0_f_425_325)">
<path d="M167.316 91.1818C167.316 120.553 147.167 144.364 119 144.364C90.8335 144.364 70.6842 120.432 70.6842 91.1818C76.0526 64.5909 90.8335 38 119 38C147.167 38 161.947 64.5909 167.316 91.1818Z" fill="url(#paint0_linear_425_325)"/>
<path d="M70.6842 91.1818H167.316L167.987 95.8352L168.658 100.489L170 120.432V128.409C170 143.095 157.982 155 143.158 155H94.8421C80.0176 155 68 143.095 68 128.409V120.432L69.5708 100.489L70.6842 91.1818Z" fill="url(#paint1_linear_425_325)"/>
</g>
<g filter="url(#filter1_f_425_325)">
<path d="M145 86.4284C145 88.4008 143.401 89.9998 141.429 89.9998C139.456 89.9998 137.857 88.4008 137.857 86.4284C137.857 84.4559 139.456 82.8569 141.429 82.8569C143.401 82.8569 145 84.4559 145 86.4284Z" fill="black"/>
<path d="M127.143 86.4284C127.143 88.4008 125.544 89.9998 123.571 89.9998C121.599 89.9998 120 88.4008 120 86.4284C120 84.4559 121.599 82.8569 123.571 82.8569C125.544 82.8569 127.143 84.4559 127.143 86.4284Z" fill="black"/>
</g>
<path d="M167.368 91.9481C167.368 120.638 147.614 143.896 120 143.896C92.3858 143.896 72.6316 120.519 72.6316 91.9481C77.8947 65.974 92.3858 40 120 40C147.614 40 162.105 65.974 167.368 91.9481Z" fill="white"/>
<path d="M72.6316 91.9481H167.368L168.026 96.4935L168.684 101.039L170 120.519V128.312C170 142.657 158.218 154.286 143.684 154.286H96.3158C81.782 154.286 70 142.657 70 128.312V120.519L71.54 101.039L72.6316 91.9481Z" fill="white"/>
<path d="M145 86.4284C145 88.4008 143.401 89.9998 141.429 89.9998C139.456 89.9998 137.857 88.4008 137.857 86.4284C137.857 84.4559 139.456 82.8569 141.429 82.8569C143.401 82.8569 145 84.4559 145 86.4284Z" fill="black"/>
<path d="M127.143 86.4284C127.143 88.4008 125.544 89.9998 123.571 89.9998C121.599 89.9998 120 88.4008 120 86.4284C120 84.4559 121.599 82.8569 123.571 82.8569C125.544 82.8569 127.143 84.4559 127.143 86.4284Z" fill="black"/>
<g filter="url(#filter2_f_425_325)">
<path d="M46.1885 153.91V177.373H40V142H47.3545L58.4759 166.403L69.7318 142H77.0414V177.373H70.6735V153.91L59.6867 177.373H57.0857L46.1885 153.91Z" fill="url(#paint2_linear_425_325)"/>
<path d="M92.5496 178C87.7065 178 84.0591 176.806 81.6076 174.418C79.1561 172.03 77.9304 168.791 77.9304 164.701C77.9304 162.045 78.4386 159.701 79.4551 157.672C80.5015 155.612 81.9664 154.015 83.8498 152.881C85.7632 151.716 87.9456 151.134 90.3971 151.134C92.8785 151.134 95.046 151.701 96.8995 152.836C98.783 153.97 100.233 155.567 101.249 157.627C102.266 159.657 102.774 162.015 102.774 164.701V167.209H84.5674C85.2251 170.851 88.0802 172.672 93.1326 172.672C95.3748 172.672 108.014 172.97 110.256 172.284L118.281 178C115.5 178 95.33 178 92.5496 178ZM96.2717 161.97C96.0924 160.358 95.4645 159.075 94.3883 158.119C93.312 157.134 91.9816 156.642 90.3971 156.642C88.8126 156.642 87.4822 157.134 86.406 158.119C85.3297 159.104 84.7168 160.388 84.5674 161.97H96.2717Z" fill="url(#paint3_linear_425_325)"/>
<path d="M118.281 178C113.438 178 109.79 176.806 107.339 174.418C104.887 172.03 103.662 168.791 103.662 164.701C103.662 162.045 104.17 159.701 105.186 157.672C106.233 155.612 107.698 154.015 109.581 152.881C111.494 151.716 113.677 151.134 116.128 151.134C118.61 151.134 120.777 151.701 122.631 152.836C124.514 153.97 125.964 155.567 126.981 157.627C127.997 159.657 128.505 162.015 128.505 164.701V167.209H110.299C110.956 170.851 113.811 172.672 118.864 172.672C121.106 172.672 139.405 172.97 141.647 172.284L144.359 178C141.638 178 121.061 178 118.281 178ZM122.003 161.97C121.824 160.358 121.196 159.075 120.119 158.119C119.043 157.134 117.713 156.642 116.128 156.642C114.544 156.642 113.213 157.134 112.137 158.119C111.061 159.104 110.448 160.388 110.299 161.97H122.003Z" fill="url(#paint4_linear_425_325)"/>
<path d="M129.348 178V142H143.429C147.345 142 150.29 142.821 152.263 144.463C154.266 146.104 155.268 148.343 155.268 151.179C155.268 152.91 154.849 154.433 154.012 155.746C153.175 157.03 151.979 158 150.425 158.657C152.398 159.224 153.938 160.269 155.044 161.791C156.15 163.284 156.703 165.104 156.703 167.254C156.703 169.194 156.24 170.94 155.313 172.493C154.386 174.015 152.996 175.209 151.142 176.075C149.289 176.94 147.079 178 144.359 178H129.348ZM135.895 147.731V156.239H143.025C144.969 156.239 146.434 155.866 147.42 155.119C148.407 154.343 148.9 153.284 148.9 151.94C148.9 150.627 148.422 149.597 147.465 148.851C146.508 148.104 145.073 147.731 143.16 147.731H135.895ZM135.895 161.791V171.642H143.474C145.656 171.642 147.316 171.224 148.452 170.388C149.588 169.522 150.156 168.299 150.156 166.716C150.156 165.134 149.573 163.925 148.407 163.09C147.241 162.224 145.552 161.791 143.339 161.791H135.895Z" fill="url(#paint5_linear_425_325)"/>
<path d="M170.005 177.955C167.584 177.955 165.416 177.388 163.503 176.254C161.619 175.119 160.14 173.552 159.063 171.552C157.987 169.522 157.449 167.239 157.449 164.701C157.449 162.164 157.987 159.896 159.063 157.896C160.14 155.866 161.619 154.284 163.503 153.149C165.416 152.015 167.584 151.448 170.005 151.448C172.427 151.448 174.579 152.015 176.463 153.149C178.376 154.284 179.871 155.866 180.947 157.896C182.024 159.896 182.562 162.164 182.562 164.701C182.562 167.239 182.024 169.522 180.947 171.552C179.871 173.552 178.376 175.119 176.463 176.254C174.579 177.388 172.427 177.955 170.005 177.955ZM170.005 172.358C171.829 172.358 173.324 171.642 174.49 170.209C175.686 168.776 176.283 166.94 176.283 164.701C176.283 162.433 175.7 160.597 174.535 159.194C173.369 157.761 171.859 157.045 170.005 157.045C168.152 157.045 166.642 157.761 165.476 159.194C164.31 160.597 163.727 162.433 163.727 164.701C163.727 166.94 164.31 168.776 165.476 170.209C166.672 171.642 168.182 172.358 170.005 172.358Z" fill="url(#paint6_linear_425_325)"/>
<path d="M197 178C193.532 178 190.811 177.493 188.838 176.478C186.895 175.463 185.52 173.955 184.713 171.955C183.905 169.925 183.502 167.254 183.502 163.94V145.896H189.69V152.612H197V158.254H189.69V164.522C189.69 166.343 189.9 167.836 190.318 169C190.737 170.134 191.469 171 192.516 171.597C193.592 172.194 195.087 172.478 197 172.448V178Z" fill="url(#paint7_linear_425_325)"/>
</g>
<path d="M49.1885 153.91V177.373H43V142H50.3545L61.4759 166.403L72.7318 142H80.0414V177.373H73.6735V153.91L62.6867 177.373H60.0857L49.1885 153.91Z" fill="white"/>
<path d="M95.5496 178C90.7065 178 87.0591 176.806 84.6076 174.418C82.1561 172.03 80.9304 168.791 80.9304 164.701C80.9304 162.045 81.4386 159.701 82.4551 157.672C83.5015 155.612 84.9664 154.015 86.8498 152.881C88.7632 151.716 90.9456 151.134 93.3971 151.134C95.8785 151.134 98.046 151.701 99.8995 152.836C101.783 153.97 103.233 155.567 104.249 157.627C105.266 159.657 105.774 162.015 105.774 164.701V167.209H87.5674C88.2251 170.851 91.0802 172.672 96.1326 172.672C98.3748 172.672 111.014 172.97 113.256 172.284L121.281 178C118.5 178 98.33 178 95.5496 178ZM99.2717 161.97C99.0924 160.358 98.4645 159.075 97.3883 158.119C96.312 157.134 94.9816 156.642 93.3971 156.642C91.8126 156.642 90.4822 157.134 89.406 158.119C88.3297 159.104 87.7168 160.388 87.5674 161.97H99.2717Z" fill="white"/>
<path d="M121.281 178C116.438 178 112.79 176.806 110.339 174.418C107.887 172.03 106.662 168.791 106.662 164.701C106.662 162.045 107.17 159.701 108.186 157.672C109.233 155.612 110.698 154.015 112.581 152.881C114.494 151.716 116.677 151.134 119.128 151.134C121.61 151.134 123.777 151.701 125.631 152.836C127.514 153.97 128.964 155.567 129.981 157.627C130.997 159.657 131.505 162.015 131.505 164.701V167.209H113.299C113.956 170.851 116.811 172.672 121.864 172.672C124.106 172.672 142.405 172.97 144.647 172.284L147.359 178C144.638 178 124.061 178 121.281 178ZM125.003 161.97C124.824 160.358 124.196 159.075 123.119 158.119C122.043 157.134 120.713 156.642 119.128 156.642C117.544 156.642 116.213 157.134 115.137 158.119C114.061 159.104 113.448 160.388 113.299 161.97H125.003Z" fill="white"/>
<path d="M132.348 178V142H146.429C150.345 142 153.29 142.821 155.263 144.463C157.266 146.104 158.268 148.343 158.268 151.179C158.268 152.91 157.849 154.433 157.012 155.746C156.175 157.03 154.979 158 153.425 158.657C155.398 159.224 156.938 160.269 158.044 161.791C159.15 163.284 159.703 165.104 159.703 167.254C159.703 169.194 159.24 170.94 158.313 172.493C157.386 174.015 155.996 175.209 154.142 176.075C152.289 176.94 150.079 178 147.359 178H132.348ZM138.895 147.731V156.239H146.025C147.969 156.239 149.434 155.866 150.42 155.119C151.407 154.343 151.9 153.284 151.9 151.94C151.9 150.627 151.422 149.597 150.465 148.851C149.508 148.104 148.073 147.731 146.16 147.731H138.895ZM138.895 161.791V171.642H146.474C148.656 171.642 150.316 171.224 151.452 170.388C152.588 169.522 153.156 168.299 153.156 166.716C153.156 165.134 152.573 163.925 151.407 163.09C150.241 162.224 148.552 161.791 146.339 161.791H138.895Z" fill="white"/>
<path d="M173.005 177.955C170.584 177.955 168.416 177.388 166.503 176.254C164.619 175.119 163.14 173.552 162.063 171.552C160.987 169.522 160.449 167.239 160.449 164.701C160.449 162.164 160.987 159.896 162.063 157.896C163.14 155.866 164.619 154.284 166.503 153.149C168.416 152.015 170.584 151.448 173.005 151.448C175.427 151.448 177.579 152.015 179.463 153.149C181.376 154.284 182.871 155.866 183.947 157.896C185.024 159.896 185.562 162.164 185.562 164.701C185.562 167.239 185.024 169.522 183.947 171.552C182.871 173.552 181.376 175.119 179.463 176.254C177.579 177.388 175.427 177.955 173.005 177.955ZM173.005 172.358C174.829 172.358 176.324 171.642 177.49 170.209C178.686 168.776 179.283 166.94 179.283 164.701C179.283 162.433 178.7 160.597 177.535 159.194C176.369 157.761 174.859 157.045 173.005 157.045C171.152 157.045 169.642 157.761 168.476 159.194C167.31 160.597 166.727 162.433 166.727 164.701C166.727 166.94 167.31 168.776 168.476 170.209C169.672 171.642 171.182 172.358 173.005 172.358Z" fill="white"/>
<path d="M200 178C196.532 178 193.811 177.493 191.838 176.478C189.895 175.463 188.52 173.955 187.713 171.955C186.905 169.925 186.502 167.254 186.502 163.94V145.896H192.69V152.612H200V158.254H192.69V164.522C192.69 166.343 192.9 167.836 193.318 169C193.737 170.134 194.469 171 195.516 171.597C196.592 172.194 198.087 172.478 200 172.448V178Z" fill="white"/>
<defs>
<filter id="filter0_f_425_325" x="63" y="33" width="112" height="127" filterUnits="userSpaceOnUse" color-interpolation-filters="sRGB">
<feFlood flood-opacity="0" result="BackgroundImageFix"/>
<feBlend mode="normal" in="SourceGraphic" in2="BackgroundImageFix" result="shape"/>
<feGaussianBlur stdDeviation="2.5" result="effect1_foregroundBlur_425_325"/>
</filter>
<filter id="filter1_f_425_325" x="115" y="77.8569" width="35.0005" height="17.1431" filterUnits="userSpaceOnUse" color-interpolation-filters="sRGB">
<feFlood flood-opacity="0" result="BackgroundImageFix"/>
<feBlend mode="normal" in="SourceGraphic" in2="BackgroundImageFix" result="shape"/>
<feGaussianBlur stdDeviation="2.5" result="effect1_foregroundBlur_425_325"/>
</filter>
<filter id="filter2_f_425_325" x="35" y="137" width="167" height="46" filterUnits="userSpaceOnUse" color-interpolation-filters="sRGB">
<feFlood flood-opacity="0" result="BackgroundImageFix"/>
<feBlend mode="normal" in="SourceGraphic" in2="BackgroundImageFix" result="shape"/>
<feGaussianBlur stdDeviation="2.5" result="effect1_foregroundBlur_425_325"/>
</filter>
<linearGradient id="paint0_linear_425_325" x1="68" y1="155" x2="206.161" y2="20.9352" gradientUnits="userSpaceOnUse">
<stop stop-color="#9358F7"/>
<stop offset="0.0666667" stop-color="#9259F7"/>
<stop offset="0.133333" stop-color="#8E5DF6"/>
<stop offset="0.2" stop-color="#8862F5"/>
<stop offset="0.266667" stop-color="#806BF4"/>
<stop offset="0.333333" stop-color="#7575F2"/>
<stop offset="0.4" stop-color="#6882F0"/>
<stop offset="0.466667" stop-color="#5990EE"/>
<stop offset="0.533333" stop-color="#4A9FEB"/>
<stop offset="0.6" stop-color="#3BADE9"/>
<stop offset="0.666667" stop-color="#2EBAE7"/>
<stop offset="0.733333" stop-color="#23C4E5"/>
<stop offset="0.8" stop-color="#1BCDE4"/>
<stop offset="0.866667" stop-color="#15D2E3"/>
<stop offset="0.933333" stop-color="#11D6E2"/>
<stop offset="1" stop-color="#10D7E2"/>
</linearGradient>
<linearGradient id="paint1_linear_425_325" x1="68" y1="155" x2="206.161" y2="20.9352" gradientUnits="userSpaceOnUse">
<stop stop-color="#9358F7"/>
<stop offset="0.0666667" stop-color="#9259F7"/>
<stop offset="0.133333" stop-color="#8E5DF6"/>
<stop offset="0.2" stop-color="#8862F5"/>
<stop offset="0.266667" stop-color="#806BF4"/>
<stop offset="0.333333" stop-color="#7575F2"/>
<stop offset="0.4" stop-color="#6882F0"/>
<stop offset="0.466667" stop-color="#5990EE"/>
<stop offset="0.533333" stop-color="#4A9FEB"/>
<stop offset="0.6" stop-color="#3BADE9"/>
<stop offset="0.666667" stop-color="#2EBAE7"/>
<stop offset="0.733333" stop-color="#23C4E5"/>
<stop offset="0.8" stop-color="#1BCDE4"/>
<stop offset="0.866667" stop-color="#15D2E3"/>
<stop offset="0.933333" stop-color="#11D6E2"/>
<stop offset="1" stop-color="#10D7E2"/>
</linearGradient>
<linearGradient id="paint2_linear_425_325" x1="40" y1="178" x2="56.8098" y2="96.4026" gradientUnits="userSpaceOnUse">
<stop stop-color="#9358F7"/>
<stop offset="0.0666667" stop-color="#9259F7"/>
<stop offset="0.133333" stop-color="#8E5DF6"/>
<stop offset="0.2" stop-color="#8862F5"/>
<stop offset="0.266667" stop-color="#806BF4"/>
<stop offset="0.333333" stop-color="#7575F2"/>
<stop offset="0.4" stop-color="#6882F0"/>
<stop offset="0.466667" stop-color="#5990EE"/>
<stop offset="0.533333" stop-color="#4A9FEB"/>
<stop offset="0.6" stop-color="#3BADE9"/>
<stop offset="0.666667" stop-color="#2EBAE7"/>
<stop offset="0.733333" stop-color="#23C4E5"/>
<stop offset="0.8" stop-color="#1BCDE4"/>
<stop offset="0.866667" stop-color="#15D2E3"/>
<stop offset="0.933333" stop-color="#11D6E2"/>
<stop offset="1" stop-color="#10D7E2"/>
</linearGradient>
<linearGradient id="paint3_linear_425_325" x1="40" y1="178" x2="56.8098" y2="96.4026" gradientUnits="userSpaceOnUse">
<stop stop-color="#9358F7"/>
<stop offset="0.0666667" stop-color="#9259F7"/>
<stop offset="0.133333" stop-color="#8E5DF6"/>
<stop offset="0.2" stop-color="#8862F5"/>
<stop offset="0.266667" stop-color="#806BF4"/>
<stop offset="0.333333" stop-color="#7575F2"/>
<stop offset="0.4" stop-color="#6882F0"/>
<stop offset="0.466667" stop-color="#5990EE"/>
<stop offset="0.533333" stop-color="#4A9FEB"/>
<stop offset="0.6" stop-color="#3BADE9"/>
<stop offset="0.666667" stop-color="#2EBAE7"/>
<stop offset="0.733333" stop-color="#23C4E5"/>
<stop offset="0.8" stop-color="#1BCDE4"/>
<stop offset="0.866667" stop-color="#15D2E3"/>
<stop offset="0.933333" stop-color="#11D6E2"/>
<stop offset="1" stop-color="#10D7E2"/>
</linearGradient>
<linearGradient id="paint4_linear_425_325" x1="40" y1="178" x2="56.8098" y2="96.4026" gradientUnits="userSpaceOnUse">
<stop stop-color="#9358F7"/>
<stop offset="0.0666667" stop-color="#9259F7"/>
<stop offset="0.133333" stop-color="#8E5DF6"/>
<stop offset="0.2" stop-color="#8862F5"/>
<stop offset="0.266667" stop-color="#806BF4"/>
<stop offset="0.333333" stop-color="#7575F2"/>
<stop offset="0.4" stop-color="#6882F0"/>
<stop offset="0.466667" stop-color="#5990EE"/>
<stop offset="0.533333" stop-color="#4A9FEB"/>
<stop offset="0.6" stop-color="#3BADE9"/>
<stop offset="0.666667" stop-color="#2EBAE7"/>
<stop offset="0.733333" stop-color="#23C4E5"/>
<stop offset="0.8" stop-color="#1BCDE4"/>
<stop offset="0.866667" stop-color="#15D2E3"/>
<stop offset="0.933333" stop-color="#11D6E2"/>
<stop offset="1" stop-color="#10D7E2"/>
</linearGradient>
<linearGradient id="paint5_linear_425_325" x1="40" y1="178" x2="56.8098" y2="96.4026" gradientUnits="userSpaceOnUse">
<stop stop-color="#9358F7"/>
<stop offset="0.0666667" stop-color="#9259F7"/>
<stop offset="0.133333" stop-color="#8E5DF6"/>
<stop offset="0.2" stop-color="#8862F5"/>
<stop offset="0.266667" stop-color="#806BF4"/>
<stop offset="0.333333" stop-color="#7575F2"/>
<stop offset="0.4" stop-color="#6882F0"/>
<stop offset="0.466667" stop-color="#5990EE"/>
<stop offset="0.533333" stop-color="#4A9FEB"/>
<stop offset="0.6" stop-color="#3BADE9"/>
<stop offset="0.666667" stop-color="#2EBAE7"/>
<stop offset="0.733333" stop-color="#23C4E5"/>
<stop offset="0.8" stop-color="#1BCDE4"/>
<stop offset="0.866667" stop-color="#15D2E3"/>
<stop offset="0.933333" stop-color="#11D6E2"/>
<stop offset="1" stop-color="#10D7E2"/>
</linearGradient>
<linearGradient id="paint6_linear_425_325" x1="40" y1="178" x2="56.8098" y2="96.4026" gradientUnits="userSpaceOnUse">
<stop stop-color="#9358F7"/>
<stop offset="0.0666667" stop-color="#9259F7"/>
<stop offset="0.133333" stop-color="#8E5DF6"/>
<stop offset="0.2" stop-color="#8862F5"/>
<stop offset="0.266667" stop-color="#806BF4"/>
<stop offset="0.333333" stop-color="#7575F2"/>
<stop offset="0.4" stop-color="#6882F0"/>
<stop offset="0.466667" stop-color="#5990EE"/>
<stop offset="0.533333" stop-color="#4A9FEB"/>
<stop offset="0.6" stop-color="#3BADE9"/>
<stop offset="0.666667" stop-color="#2EBAE7"/>
<stop offset="0.733333" stop-color="#23C4E5"/>
<stop offset="0.8" stop-color="#1BCDE4"/>
<stop offset="0.866667" stop-color="#15D2E3"/>
<stop offset="0.933333" stop-color="#11D6E2"/>
<stop offset="1" stop-color="#10D7E2"/>
</linearGradient>
<linearGradient id="paint7_linear_425_325" x1="40" y1="178" x2="56.8098" y2="96.4026" gradientUnits="userSpaceOnUse">
<stop stop-color="#9358F7"/>
<stop offset="0.0666667" stop-color="#9259F7"/>
<stop offset="0.133333" stop-color="#8E5DF6"/>
<stop offset="0.2" stop-color="#8862F5"/>
<stop offset="0.266667" stop-color="#806BF4"/>
<stop offset="0.333333" stop-color="#7575F2"/>
<stop offset="0.4" stop-color="#6882F0"/>
<stop offset="0.466667" stop-color="#5990EE"/>
<stop offset="0.533333" stop-color="#4A9FEB"/>
<stop offset="0.6" stop-color="#3BADE9"/>
<stop offset="0.666667" stop-color="#2EBAE7"/>
<stop offset="0.733333" stop-color="#23C4E5"/>
<stop offset="0.8" stop-color="#1BCDE4"/>
<stop offset="0.866667" stop-color="#15D2E3"/>
<stop offset="0.933333" stop-color="#11D6E2"/>
<stop offset="1" stop-color="#10D7E2"/>
</linearGradient>
</defs>
</svg>
